<?xml version="1.0" standalone="no"?><!DOCTYPE svg PUBLIC "-//W3C//DTD SVG 1.1//EN" "http://www.w3.org/Graphics/SVG/1.1/DTD/svg11.dtd"><svg t="1596683030171" class="icon" viewBox="0 0 1024 1024" version="1.1" xmlns="http://www.w3.org/2000/svg" p-id="1016" xmlns:xlink="http://www.w3.org/1999/xlink" width="200" height="200"><defs><style type="text/css"></style></defs><path d="M196.2496 680.96v112.64A70.4 70.4 0 0 0 266.24 863.8464h491.52A70.4 70.4 0 0 0 827.7504 793.6v-281.6c-283.2896 172.8512-519.3728 179.5072-631.5008 168.96z" fill="#FCB74A" p-id="1017"></path><path d="M344.8832 568.32a30.72 30.72 0 0 1-30.72-30.72 136.0896 136.0896 0 0 1 135.9872-135.7824 30.72 30.72 0 0 1 0 61.44A74.5984 74.5984 0 0 0 375.6032 537.6a30.72 30.72 0 0 1-30.72 30.72z" fill="#333333" p-id="1018"></path><path d="M757.76 890.88H266.24a101.0176 101.0176 0 0 1-100.9152-100.9152V435.5584c0-26.6752 11.6224-52.3776 33.5872-74.3424l1.8944-1.7408 245.76-207.0016c35.2768-30.2592 89.8048-30.72 129.4336-1.0752l1.3312 1.0752 246.5792 207.8208 0.9216 0.9216c21.9648 21.9648 33.5872 47.6672 33.5872 74.3424v354.304A101.0176 101.0176 0 0 1 757.76 890.88zM241.7152 405.504c-9.9328 10.24-14.7456 20.0192-14.7456 30.0544v354.304A39.5264 39.5264 0 0 0 266.24 829.44h491.52a39.5264 39.5264 0 0 0 39.4752-39.4752V435.5584c0-10.24-4.8128-19.8656-14.7456-30.0544l-243.712-205.4144c-16.4352-11.9296-38.7584-12.288-52.1728-0.8192z" fill="#333333" p-id="1019"></path></svg>